<svg version="1.1" id="Layer_1" xmlns="http://www.w3.org/2000/svg" xmlns:xlink="http://www.w3.org/1999/xlink" x="0px" y="0px"
	 width="100%" viewBox="0 0 427 208" enable-background="new 0 0 427 208" xml:space="preserve">
<path fill="#FEFEFF" opacity="1.000000" stroke="none" 
	d="
M284.000000,209.000000 
	C189.333374,209.000000 95.166733,209.000000 1.000076,209.000000 
	C1.000051,139.666733 1.000051,70.333450 1.000025,1.000132 
	C143.333221,1.000088 285.666443,1.000088 427.999756,1.000044 
	C427.999817,70.333199 427.999817,139.666397 427.999908,208.999802 
	C380.166656,209.000000 332.333344,209.000000 284.000000,209.000000 
M171.260651,158.499954 
	C186.981125,161.010544 199.351868,155.172714 208.931305,142.984268 
	C217.408218,132.198639 221.187225,119.519356 223.036118,106.122620 
	C223.257263,104.520218 224.003723,102.057823 225.098190,101.672012 
	C229.521896,100.112625 234.177185,99.210197 239.276566,97.932564 
	C238.861023,100.138359 238.553711,101.735329 238.259888,103.334763 
	C236.337875,113.797295 233.772522,124.191559 232.649231,134.739304 
	C230.936432,150.822540 240.599487,160.662216 255.895950,158.763733 
	C260.875336,158.145752 265.945618,156.234222 270.382019,153.824051 
	C275.032288,151.297699 278.971130,147.461838 283.398224,144.062180 
	C286.133423,153.489059 292.239471,158.707336 302.168610,159.015228 
	C309.397827,159.239426 316.072327,157.192551 321.997955,153.247803 
	C326.173004,150.468430 329.868988,146.969467 333.753723,143.812241 
	C340.184723,161.651245 352.260468,163.629776 375.010956,150.413849 
	C375.681305,154.558884 373.976257,156.497925 370.004242,158.066238 
	C362.803558,160.909348 355.341034,163.811752 349.146301,168.291397 
	C341.920929,173.516296 340.418762,181.830368 342.705658,190.391235 
	C344.973053,198.879303 351.251160,203.374176 359.461365,204.961716 
	C373.407166,207.658295 388.216034,199.766083 393.901093,186.690582 
	C395.745331,182.448944 397.108551,177.919067 398.078705,173.389694 
	C403.165924,149.638779 408.064331,125.847359 413.011963,102.066597 
	C415.685333,89.217041 418.325928,76.360672 421.055573,63.147926 
	C411.903351,63.147926 403.134369,63.147926 394.112335,63.147926 
	C393.715302,64.593353 393.249878,65.998421 392.946136,67.437607 
	C389.304626,84.693222 385.899750,102.002930 381.938324,119.184456 
	C380.691467,124.592140 378.473419,129.939392 375.777771,134.803253 
	C373.116486,139.605148 367.240509,141.782104 363.891296,139.818985 
	C359.515594,137.254227 359.973236,132.858994 360.830200,128.683777 
	C363.974670,113.363625 367.222931,98.064796 370.404022,82.752121 
	C371.740906,76.316841 373.007721,69.867027 374.351410,63.200443 
	C364.927582,63.200443 356.184540,63.200443 347.388824,63.200443 
	C343.213745,83.045296 339.189270,102.585327 334.956299,122.080093 
	C333.389465,129.296066 330.286285,136.007935 323.014862,138.867249 
	C319.834930,140.117661 315.010895,140.242142 312.308319,138.606400 
	C310.421204,137.464203 309.827667,132.255020 310.437500,129.220398 
	C315.615204,103.456764 321.208527,77.776756 326.662140,52.068466 
	C328.472717,43.533478 330.239441,34.989185 332.189301,25.669615 
	C323.616730,26.842243 315.935791,28.041201 308.215088,28.869925 
	C305.450409,29.166676 304.244171,30.001585 303.673889,32.875416 
	C301.278198,44.947342 298.553680,56.953709 295.989685,68.992630 
	C292.247162,86.565216 288.670868,104.174606 284.753510,121.707924 
	C283.116119,129.036484 279.992859,135.947388 272.531830,138.941055 
	C269.466614,140.170929 264.898743,140.360809 262.202179,138.872131 
	C260.342834,137.845642 260.434326,133.141159 259.846985,130.043808 
	C259.673431,129.128647 260.134888,128.084213 260.342560,127.106911 
	C266.116669,99.933456 271.912750,72.764648 277.661072,45.585754 
	C279.012512,39.196045 280.205750,32.772881 281.608917,25.670904 
	C273.356110,26.818531 266.166809,28.156233 258.918182,28.692442 
	C254.926254,28.987740 253.624008,30.627613 252.885941,34.249332 
	C249.431244,51.201633 245.762360,68.110794 242.054825,85.010117 
	C241.737473,86.456619 240.846420,88.572098 239.758087,88.918121 
	C234.842133,90.481087 229.759247,91.518974 224.545837,92.792603 
	C223.893219,87.829109 223.554062,84.199646 222.919632,80.622551 
	C221.061661,70.146660 214.346893,63.037659 204.780960,61.999779 
	C191.712097,60.581837 179.870956,63.659348 170.443222,73.295731 
	C154.068283,90.033081 147.903503,110.623901 148.835983,133.525558 
	C149.409027,147.599609 156.715378,155.538605 171.260651,158.499954 
M48.028316,68.543831 
	C37.110909,98.158554 26.193501,127.773277 15.067769,157.953110 
	C18.565069,157.953110 21.423828,157.616623 24.170582,158.028000 
	C28.885635,158.734161 30.753254,156.645432 32.284000,152.361465 
	C40.735123,128.709930 49.520508,105.177773 58.212605,81.612541 
	C58.739285,80.184662 59.449383,78.824425 60.074135,77.432716 
	C60.456295,77.533180 60.838451,77.633644 61.220608,77.734116 
	C60.073975,104.352127 58.927341,130.970154 57.765003,157.952805 
	C65.430435,157.952805 72.241074,157.768967 79.034492,158.031158 
	C82.378098,158.160233 83.951408,157.113647 85.247444,153.923996 
	C93.452286,133.731232 101.916893,113.643898 110.315971,93.530212 
	C112.259789,88.875282 114.282021,84.253098 116.268166,79.615852 
	C116.750984,79.735603 117.233803,79.855354 117.716614,79.975113 
	C114.119637,105.839211 110.522659,131.703308 106.903709,157.725372 
	C116.232849,157.725372 124.838898,157.725372 133.925034,157.725372 
	C140.466705,111.540504 146.986053,65.513115 153.607635,18.764132 
	C145.834991,18.764132 138.704071,19.048437 131.610825,18.654585 
	C127.534027,18.428225 125.821510,19.991699 124.353989,23.578194 
	C112.382385,52.835758 100.217873,82.014404 88.096947,111.210793 
	C87.500282,112.648003 86.763535,114.027046 85.615211,116.431564 
	C85.414444,114.702301 85.296371,114.237747 85.316452,113.779243 
	C86.613083,84.170593 87.779831,54.554901 89.359283,24.961248 
	C89.639801,19.705336 88.283730,17.701529 83.036652,16.942076 
	C64.102707,14.201619 48.320728,21.102442 34.189274,32.640282 
	C24.420395,40.616234 17.248421,50.509304 15.488979,63.512966 
	C13.842566,75.681267 22.578251,84.416634 34.548698,82.547775 
	C27.131002,52.699871 46.602928,31.871754 61.901943,29.828897 
	C61.901943,30.158531 61.994186,30.518887 61.888672,30.806757 
	C57.366386,43.144867 52.826523,55.476532 48.028316,68.543831 
z"/>
<path fill="#5455EA" opacity="1.000000" stroke="none" 
	d="
M170.845734,158.384827 
	C156.715378,155.538605 149.409027,147.599609 148.835983,133.525558 
	C147.903503,110.623901 154.068283,90.033081 170.443222,73.295731 
	C179.870956,63.659348 191.712097,60.581837 204.780960,61.999779 
	C214.346893,63.037659 221.061661,70.146660 222.919632,80.622551 
	C223.554062,84.199646 223.893219,87.829109 224.545837,92.792603 
	C229.759247,91.518974 234.842133,90.481087 239.758087,88.918121 
	C240.846420,88.572098 241.737473,86.456619 242.054825,85.010117 
	C245.762360,68.110794 249.431244,51.201633 252.885941,34.249332 
	C253.624008,30.627613 254.926254,28.987740 258.918182,28.692442 
	C266.166809,28.156233 273.356110,26.818531 281.608917,25.670904 
	C280.205750,32.772881 279.012512,39.196045 277.661072,45.585754 
	C271.912750,72.764648 266.116669,99.933456 260.342560,127.106911 
	C260.134888,128.084213 259.673431,129.128647 259.846985,130.043808 
	C260.434326,133.141159 260.342834,137.845642 262.202179,138.872131 
	C264.898743,140.360809 269.466614,140.170929 272.531830,138.941055 
	C279.992859,135.947388 283.116119,129.036484 284.753510,121.707924 
	C288.670868,104.174606 292.247162,86.565216 295.989685,68.992630 
	C298.553680,56.953709 301.278198,44.947342 303.673889,32.875416 
	C304.244171,30.001585 305.450409,29.166676 308.215088,28.869925 
	C315.935791,28.041201 323.616730,26.842243 332.189301,25.669615 
	C330.239441,34.989185 328.472717,43.533478 326.662140,52.068466 
	C321.208527,77.776756 315.615204,103.456764 310.437500,129.220398 
	C309.827667,132.255020 310.421204,137.464203 312.308319,138.606400 
	C315.010895,140.242142 319.834930,140.117661 323.014862,138.867249 
	C330.286285,136.007935 333.389465,129.296066 334.956299,122.080093 
	C339.189270,102.585327 343.213745,83.045296 347.388824,63.200443 
	C356.184540,63.200443 364.927582,63.200443 374.351410,63.200443 
	C373.007721,69.867027 371.740906,76.316841 370.404022,82.752121 
	C367.222931,98.064796 363.974670,113.363625 360.830200,128.683777 
	C359.973236,132.858994 359.515594,137.254227 363.891296,139.818985 
	C367.240509,141.782104 373.116486,139.605148 375.777771,134.803253 
	C378.473419,129.939392 380.691467,124.592140 381.938324,119.184456 
	C385.899750,102.002930 389.304626,84.693222 392.946136,67.437607 
	C393.249878,65.998421 393.715302,64.593353 394.112335,63.147926 
	C403.134369,63.147926 411.903351,63.147926 421.055573,63.147926 
	C418.325928,76.360672 415.685333,89.217041 413.011963,102.066597 
	C408.064331,125.847359 403.165924,149.638779 398.078705,173.389694 
	C397.108551,177.919067 395.745331,182.448944 393.901093,186.690582 
	C388.216034,199.766083 373.407166,207.658295 359.461365,204.961716 
	C351.251160,203.374176 344.973053,198.879303 342.705658,190.391235 
	C340.418762,181.830368 341.920929,173.516296 349.146301,168.291397 
	C355.341034,163.811752 362.803558,160.909348 370.004242,158.066238 
	C373.976257,156.497925 375.681305,154.558884 375.010956,150.413849 
	C352.260468,163.629776 340.184723,161.651245 333.753723,143.812241 
	C329.868988,146.969467 326.173004,150.468430 321.997955,153.247803 
	C316.072327,157.192551 309.397827,159.239426 302.168610,159.015228 
	C292.239471,158.707336 286.133423,153.489059 283.398224,144.062180 
	C278.971130,147.461838 275.032288,151.297699 270.382019,153.824051 
	C265.945618,156.234222 260.875336,158.145752 255.895950,158.763733 
	C240.599487,160.662216 230.936432,150.822540 232.649231,134.739304 
	C233.772522,124.191559 236.337875,113.797295 238.259888,103.334763 
	C238.553711,101.735329 238.861023,100.138359 239.276566,97.932564 
	C234.177185,99.210197 229.521896,100.112625 225.098190,101.672012 
	C224.003723,102.057823 223.257263,104.520218 223.036118,106.122620 
	C221.187225,119.519356 217.408218,132.198639 208.931305,142.984268 
	C199.351868,155.172714 186.981125,161.010544 170.845734,158.384827 
M180.251648,102.874496 
	C177.603867,112.872940 175.499344,122.945969 176.898026,133.372635 
	C177.934982,141.102859 184.724014,144.125290 191.230255,139.789948 
	C192.595810,138.880035 193.886993,137.741058 194.921661,136.470795 
	C202.533249,127.125900 205.439163,115.894768 207.469482,104.364449 
	C207.615219,103.536842 206.786377,102.311890 206.081009,101.596977 
	C201.686249,97.142860 201.470322,89.995377 206.151276,85.713348 
	C209.787781,82.386734 208.334793,78.947327 206.693344,75.862129 
	C204.962570,72.609024 201.358459,72.040062 198.436813,73.874336 
	C195.296921,75.845634 191.906601,78.306046 190.153549,81.414696 
	C186.427826,88.021530 183.692734,95.187012 180.251648,102.874496 
M369.394592,163.914566 
	C366.568909,165.295441 363.656219,166.525360 360.937439,168.091766 
	C356.625122,170.576279 352.933044,173.965302 352.502808,179.116608 
	C352.303589,181.501785 353.459808,185.113449 355.233887,186.256546 
	C357.259949,187.562042 360.822998,187.340195 363.401520,186.630936 
	C365.142487,186.152023 366.997528,183.914841 367.650055,182.059250 
	C369.617889,176.463089 371.048981,170.675735 372.533508,164.922714 
	C372.583008,164.730804 370.952576,164.105423 369.394592,163.914566 
z"/>
<path fill="#5455EA" opacity="1.000000" stroke="none" 
	d="
M48.158562,68.176407 
	C52.826523,55.476532 57.366386,43.144867 61.888672,30.806757 
	C61.994186,30.518887 61.901943,30.158531 61.901943,29.828897 
	C46.602928,31.871754 27.131002,52.699871 34.548698,82.547775 
	C22.578251,84.416634 13.842566,75.681267 15.488979,63.512966 
	C17.248421,50.509304 24.420395,40.616234 34.189274,32.640282 
	C48.320728,21.102442 64.102707,14.201619 83.036652,16.942076 
	C88.283730,17.701529 89.639801,19.705336 89.359283,24.961248 
	C87.779831,54.554901 86.613083,84.170593 85.316452,113.779243 
	C85.296371,114.237747 85.414444,114.702301 85.615211,116.431564 
	C86.763535,114.027046 87.500282,112.648003 88.096947,111.210793 
	C100.217873,82.014404 112.382385,52.835758 124.353989,23.578194 
	C125.821510,19.991699 127.534027,18.428225 131.610825,18.654585 
	C138.704071,19.048437 145.834991,18.764132 153.607635,18.764132 
	C146.986053,65.513115 140.466705,111.540504 133.925034,157.725372 
	C124.838898,157.725372 116.232849,157.725372 106.903709,157.725372 
	C110.522659,131.703308 114.119637,105.839211 117.716614,79.975113 
	C117.233803,79.855354 116.750984,79.735603 116.268166,79.615852 
	C114.282021,84.253098 112.259789,88.875282 110.315971,93.530212 
	C101.916893,113.643898 93.452286,133.731232 85.247444,153.923996 
	C83.951408,157.113647 82.378098,158.160233 79.034492,158.031158 
	C72.241074,157.768967 65.430435,157.952805 57.765003,157.952805 
	C58.927341,130.970154 60.073975,104.352127 61.220608,77.734116 
	C60.838451,77.633644 60.456295,77.533180 60.074135,77.432716 
	C59.449383,78.824425 58.739285,80.184662 58.212605,81.612541 
	C49.520508,105.177773 40.735123,128.709930 32.284000,152.361465 
	C30.753254,156.645432 28.885635,158.734161 24.170582,158.028000 
	C21.423828,157.616623 18.565069,157.953110 15.067769,157.953110 
	C26.193501,127.773277 37.110909,98.158554 48.158562,68.176407 
z"/>
<path fill="#FCFCFF" opacity="1.000000" stroke="none" 
	d="
M180.401611,102.498993 
	C183.692734,95.187012 186.427826,88.021530 190.153549,81.414696 
	C191.906601,78.306046 195.296921,75.845634 198.436813,73.874336 
	C201.358459,72.040062 204.962570,72.609024 206.693344,75.862129 
	C208.334793,78.947327 209.787781,82.386734 206.151276,85.713348 
	C201.470322,89.995377 201.686249,97.142860 206.081009,101.596977 
	C206.786377,102.311890 207.615219,103.536842 207.469482,104.364449 
	C205.439163,115.894768 202.533249,127.125900 194.921661,136.470795 
	C193.886993,137.741058 192.595810,138.880035 191.230255,139.789948 
	C184.724014,144.125290 177.934982,141.102859 176.898026,133.372635 
	C175.499344,122.945969 177.603867,112.872940 180.401611,102.498993 
z"/>
<path fill="#FAFAFE" opacity="1.000000" stroke="none" 
	d="
M369.749878,163.798325 
	C370.952576,164.105423 372.583008,164.730804 372.533508,164.922714 
	C371.048981,170.675735 369.617889,176.463089 367.650055,182.059250 
	C366.997528,183.914841 365.142487,186.152023 363.401520,186.630936 
	C360.822998,187.340195 357.259949,187.562042 355.233887,186.256546 
	C353.459808,185.113449 352.303589,181.501785 352.502808,179.116608 
	C352.933044,173.965302 356.625122,170.576279 360.937439,168.091766 
	C363.656219,166.525360 366.568909,165.295441 369.749878,163.798325 
z"/>
</svg>