<svg version="1.1" id="Layer_1" xmlns="http://www.w3.org/2000/svg" xmlns:xlink="http://www.w3.org/1999/xlink" x="0px" y="0px"
	 width="100%" height="100%" viewBox="0 0 124 174" enable-background="new 0 0 124 174" xml:space="preserve">
<path fill="#FEFEFF" opacity="1.000000" stroke="none" 
	d="
M59.000000,175.000000 
	C39.333332,175.000000 20.166666,175.000000 1.000000,175.000000 
	C1.000000,117.000000 1.000000,59.000000 1.000000,1.000000 
	C42.333332,1.000000 83.666664,1.000000 125.000000,1.000000 
	C125.000000,59.000000 125.000000,117.000000 125.000000,175.000000 
	C103.166664,175.000000 81.333336,175.000000 59.000000,175.000000 
M46.229336,15.345357 
	C45.540321,16.912762 44.468853,18.422981 44.224552,20.056879 
	C42.674717,30.422308 41.237221,40.806194 39.927425,51.204746 
	C39.577312,53.984291 38.687840,55.391270 35.598278,55.212963 
	C31.612066,54.982914 27.587038,54.965923 23.611732,55.277843 
	C22.370630,55.375229 20.479683,56.635113 20.195972,57.708904 
	C19.363462,60.859787 19.189421,64.184647 18.658567,68.187210 
	C25.047882,68.187210 30.920616,68.187210 37.172798,68.187210 
	C35.612373,80.110405 34.243866,91.319366 32.522942,102.473961 
	C32.362843,103.511688 30.008646,104.854660 28.604965,104.940536 
	C23.666977,105.242638 18.699207,105.057899 13.414341,105.057899 
	C12.824785,109.576782 12.304657,113.563515 11.712217,118.104507 
	C18.250006,118.104507 24.018120,118.104507 30.211697,118.104507 
	C28.210329,132.999359 26.277849,147.381531 24.326309,161.905563 
	C30.266731,161.905563 35.541931,161.905563 41.080540,161.905563 
	C43.195614,147.251587 45.279945,132.810577 47.379673,118.262932 
	C55.360920,118.262932 62.952904,118.262932 70.885849,118.262932 
	C68.868454,132.957962 66.894058,147.339813 64.896942,161.887177 
	C70.964844,161.887177 76.226761,161.887177 81.752083,161.887177 
	C83.825974,147.226501 85.867096,132.797470 87.954468,118.041443 
	C93.867134,118.041443 99.326027,118.041443 105.201424,118.041443 
	C105.804108,113.674782 106.359772,109.648720 107.006592,104.962273 
	C101.088791,104.962273 95.675217,104.962273 89.854431,104.962273 
	C91.460304,93.137634 92.885437,81.941154 94.645821,70.797646 
	C94.816864,69.714905 97.009056,68.276405 98.350075,68.177010 
	C102.808121,67.846596 107.305885,68.052063 112.204323,68.052063 
	C112.785988,63.736347 113.325623,59.732475 113.960381,55.022820 
	C107.930832,55.022820 102.534073,55.022820 96.855812,55.022820 
	C98.701492,41.554768 100.456566,28.747919 102.308159,15.236787 
	C99.759148,15.236787 97.811501,15.237206 95.863853,15.236717 
	C84.985458,15.233989 85.164352,15.254923 83.917824,25.869160 
	C82.780426,35.554188 81.198174,45.186970 79.810020,54.856422 
	C71.657623,54.856422 64.058762,54.856422 56.245884,54.856422 
	C58.085205,41.622936 59.879467,28.713650 61.750637,15.251040 
	C56.366085,15.251040 51.735004,15.251040 46.229336,15.345357 
z"/>
<path fill="#5556EA" opacity="1.000000" stroke="none" 
	d="
M46.666634,15.298199 
	C51.735004,15.251040 56.366085,15.251040 61.750637,15.251040 
	C59.879467,28.713650 58.085205,41.622936 56.245884,54.856422 
	C64.058762,54.856422 71.657623,54.856422 79.810020,54.856422 
	C81.198174,45.186970 82.780426,35.554188 83.917824,25.869160 
	C85.164352,15.254923 84.985458,15.233989 95.863853,15.236717 
	C97.811501,15.237206 99.759148,15.236787 102.308159,15.236787 
	C100.456566,28.747919 98.701492,41.554768 96.855812,55.022820 
	C102.534073,55.022820 107.930832,55.022820 113.960381,55.022820 
	C113.325623,59.732475 112.785988,63.736347 112.204323,68.052063 
	C107.305885,68.052063 102.808121,67.846596 98.350075,68.177010 
	C97.009056,68.276405 94.816864,69.714905 94.645821,70.797646 
	C92.885437,81.941154 91.460304,93.137634 89.854431,104.962273 
	C95.675217,104.962273 101.088791,104.962273 107.006592,104.962273 
	C106.359772,109.648720 105.804108,113.674782 105.201424,118.041443 
	C99.326027,118.041443 93.867134,118.041443 87.954468,118.041443 
	C85.867096,132.797470 83.825974,147.226501 81.752083,161.887177 
	C76.226761,161.887177 70.964844,161.887177 64.896942,161.887177 
	C66.894058,147.339813 68.868454,132.957962 70.885849,118.262932 
	C62.952904,118.262932 55.360920,118.262932 47.379673,118.262932 
	C45.279945,132.810577 43.195614,147.251587 41.080540,161.905563 
	C35.541931,161.905563 30.266731,161.905563 24.326309,161.905563 
	C26.277849,147.381531 28.210329,132.999359 30.211697,118.104507 
	C24.018120,118.104507 18.250006,118.104507 11.712217,118.104507 
	C12.304657,113.563515 12.824785,109.576782 13.414341,105.057899 
	C18.699207,105.057899 23.666977,105.242638 28.604965,104.940536 
	C30.008646,104.854660 32.362843,103.511688 32.522942,102.473961 
	C34.243866,91.319366 35.612373,80.110405 37.172798,68.187210 
	C30.920616,68.187210 25.047882,68.187210 18.658567,68.187210 
	C19.189421,64.184647 19.363462,60.859787 20.195972,57.708904 
	C20.479683,56.635113 22.370630,55.375229 23.611732,55.277843 
	C27.587038,54.965923 31.612066,54.982914 35.598278,55.212963 
	C38.687840,55.391270 39.577312,53.984291 39.927425,51.204746 
	C41.237221,40.806194 42.674717,30.422308 44.224552,20.056879 
	C44.468853,18.422981 45.540321,16.912762 46.666634,15.298199 
M50.799541,93.242569 
	C50.296021,96.968819 49.792500,100.695068 49.205761,105.037178 
	C56.644859,105.037178 63.589359,105.142876 70.522621,104.911674 
	C71.453941,104.880615 72.969238,103.248390 73.130859,102.191902 
	C74.834175,91.057472 76.317284,79.889351 77.906815,68.400696 
	C69.826805,68.400696 62.133362,68.400696 54.263149,68.400696 
	C53.124744,76.606590 52.031178,84.489296 50.799541,93.242569 
z"/>
<path fill="#FCFCFF" opacity="1.000000" stroke="none" 
	d="
M50.868576,92.807281 
	C52.031178,84.489296 53.124744,76.606590 54.263149,68.400696 
	C62.133362,68.400696 69.826805,68.400696 77.906815,68.400696 
	C76.317284,79.889351 74.834175,91.057472 73.130859,102.191902 
	C72.969238,103.248390 71.453941,104.880615 70.522621,104.911674 
	C63.589359,105.142876 56.644859,105.037178 49.205761,105.037178 
	C49.792500,100.695068 50.296021,96.968819 50.868576,92.807281 
z"/>
</svg>